<mxfile host="app.diagrams.net" agent="Mozilla/5.0 (X11; Linux x86_64) AppleWebKit/537.36 (KHTML, like Gecko) Chrome/134.0.0.0 Safari/537.36 Edg/134.0.0.0" version="27.0.5" pages="3">
  <diagram name="Deteccion" id="S1kjHQXoCNGqXWM02Cwv">
    <mxGraphModel dx="1165" dy="668" grid="1" gridSize="10" guides="1" tooltips="1" connect="1" arrows="1" fold="1" page="1" pageScale="1" pageWidth="1000" pageHeight="800" math="0" shadow="0">
      <root>
        <mxCell id="0" />
        <mxCell id="1" parent="0" />
        <mxCell id="L28wnRcJoLEO5RbSdlh0-14" value="" style="edgeStyle=orthogonalEdgeStyle;rounded=0;orthogonalLoop=1;jettySize=auto;html=1;" edge="1" parent="1" source="L28wnRcJoLEO5RbSdlh0-1" target="L28wnRcJoLEO5RbSdlh0-2">
          <mxGeometry relative="1" as="geometry">
            <Array as="points">
              <mxPoint x="240" y="80" />
              <mxPoint x="240" y="40" />
            </Array>
          </mxGeometry>
        </mxCell>
        <mxCell id="L28wnRcJoLEO5RbSdlh0-1" value="Simulación inicial en OpenMC&lt;div&gt;(Python + C++)&lt;/div&gt;" style="rounded=1;whiteSpace=wrap;html=1;" vertex="1" parent="1">
          <mxGeometry x="40" y="50" width="180" height="60" as="geometry" />
        </mxCell>
        <mxCell id="L28wnRcJoLEO5RbSdlh0-5" value="" style="edgeStyle=orthogonalEdgeStyle;rounded=0;orthogonalLoop=1;jettySize=auto;html=1;" edge="1" parent="1" source="L28wnRcJoLEO5RbSdlh0-2" target="L28wnRcJoLEO5RbSdlh0-4">
          <mxGeometry relative="1" as="geometry" />
        </mxCell>
        <mxCell id="L28wnRcJoLEO5RbSdlh0-2" value="Archivo de partículas&lt;div&gt;(HDF5)&lt;/div&gt;" style="whiteSpace=wrap;html=1;rounded=0;" vertex="1" parent="1">
          <mxGeometry x="260" y="10" width="130" height="60" as="geometry" />
        </mxCell>
        <mxCell id="L28wnRcJoLEO5RbSdlh0-13" value="" style="edgeStyle=orthogonalEdgeStyle;rounded=0;orthogonalLoop=1;jettySize=auto;html=1;" edge="1" parent="1" source="L28wnRcJoLEO5RbSdlh0-4" target="L28wnRcJoLEO5RbSdlh0-12">
          <mxGeometry relative="1" as="geometry">
            <Array as="points">
              <mxPoint x="590" y="40" />
              <mxPoint x="590" y="80" />
            </Array>
          </mxGeometry>
        </mxCell>
        <mxCell id="L28wnRcJoLEO5RbSdlh0-4" value="Conversión HDF5 a MCPL&lt;div&gt;(Python)&lt;/div&gt;" style="whiteSpace=wrap;html=1;rounded=1;" vertex="1" parent="1">
          <mxGeometry x="410" y="10" width="160" height="60" as="geometry" />
        </mxCell>
        <mxCell id="L28wnRcJoLEO5RbSdlh0-12" value="Archivo de partículas&lt;div&gt;(MCPL)&lt;/div&gt;" style="whiteSpace=wrap;html=1;rounded=0;" vertex="1" parent="1">
          <mxGeometry x="610" y="50" width="130" height="60" as="geometry" />
        </mxCell>
        <mxCell id="L28wnRcJoLEO5RbSdlh0-15" value="" style="edgeStyle=orthogonalEdgeStyle;rounded=0;orthogonalLoop=1;jettySize=auto;html=1;entryX=0;entryY=0.5;entryDx=0;entryDy=0;" edge="1" parent="1" target="L28wnRcJoLEO5RbSdlh0-12">
          <mxGeometry relative="1" as="geometry">
            <mxPoint x="220" y="80" as="sourcePoint" />
            <mxPoint x="320" y="40" as="targetPoint" />
            <Array as="points">
              <mxPoint x="240" y="80" />
              <mxPoint x="240" y="120" />
              <mxPoint x="590" y="120" />
              <mxPoint x="590" y="80" />
            </Array>
          </mxGeometry>
        </mxCell>
      </root>
    </mxGraphModel>
  </diagram>
  <diagram name="Procesamiento" id="SGmwmxey5GSyJP0Ad9at">
    <mxGraphModel dx="1165" dy="668" grid="1" gridSize="10" guides="1" tooltips="1" connect="1" arrows="1" fold="1" page="1" pageScale="1" pageWidth="1000" pageHeight="800" math="0" shadow="0">
      <root>
        <mxCell id="1ySRMCkdck8KW4Ug-UTt-0" />
        <mxCell id="1ySRMCkdck8KW4Ug-UTt-1" parent="1ySRMCkdck8KW4Ug-UTt-0" />
        <mxCell id="1ySRMCkdck8KW4Ug-UTt-10" value="" style="edgeStyle=orthogonalEdgeStyle;rounded=0;orthogonalLoop=1;jettySize=auto;html=1;" edge="1" parent="1ySRMCkdck8KW4Ug-UTt-1" source="1ySRMCkdck8KW4Ug-UTt-11" target="1ySRMCkdck8KW4Ug-UTt-13">
          <mxGeometry relative="1" as="geometry" />
        </mxCell>
        <mxCell id="1ySRMCkdck8KW4Ug-UTt-11" value="Archivo de partículas&lt;div&gt;(MCPL)&lt;/div&gt;" style="whiteSpace=wrap;html=1;rounded=0;" vertex="1" parent="1ySRMCkdck8KW4Ug-UTt-1">
          <mxGeometry x="40" y="210" width="120" height="60" as="geometry" />
        </mxCell>
        <mxCell id="1ySRMCkdck8KW4Ug-UTt-12" value="" style="edgeStyle=orthogonalEdgeStyle;rounded=0;orthogonalLoop=1;jettySize=auto;html=1;" edge="1" parent="1ySRMCkdck8KW4Ug-UTt-1" source="1ySRMCkdck8KW4Ug-UTt-13" target="1ySRMCkdck8KW4Ug-UTt-14">
          <mxGeometry relative="1" as="geometry" />
        </mxCell>
        <mxCell id="1ySRMCkdck8KW4Ug-UTt-13" value="Procesamiento mediante histogramas multidimensionales&lt;div&gt;(Python)&lt;/div&gt;" style="whiteSpace=wrap;html=1;rounded=1;" vertex="1" parent="1ySRMCkdck8KW4Ug-UTt-1">
          <mxGeometry x="180" y="210" width="190" height="60" as="geometry" />
        </mxCell>
        <mxCell id="1ySRMCkdck8KW4Ug-UTt-14" value="Fuente distribucional&lt;div&gt;(XML)&lt;/div&gt;" style="whiteSpace=wrap;html=1;rounded=0;" vertex="1" parent="1ySRMCkdck8KW4Ug-UTt-1">
          <mxGeometry x="390" y="210" width="120" height="60" as="geometry" />
        </mxCell>
      </root>
    </mxGraphModel>
  </diagram>
  <diagram name="Remuestreo" id="hVCiRcngPxRXq_uU5ye-">
    <mxGraphModel dx="1165" dy="668" grid="1" gridSize="10" guides="1" tooltips="1" connect="1" arrows="1" fold="1" page="1" pageScale="1" pageWidth="1000" pageHeight="800" math="0" shadow="0">
      <root>
        <mxCell id="VHikrp3PAMkJuFz13JDx-0" />
        <mxCell id="VHikrp3PAMkJuFz13JDx-1" parent="VHikrp3PAMkJuFz13JDx-0" />
        <mxCell id="VHikrp3PAMkJuFz13JDx-15" value="" style="edgeStyle=orthogonalEdgeStyle;rounded=0;orthogonalLoop=1;jettySize=auto;html=1;" edge="1" parent="VHikrp3PAMkJuFz13JDx-1" source="VHikrp3PAMkJuFz13JDx-17" target="VHikrp3PAMkJuFz13JDx-19">
          <mxGeometry relative="1" as="geometry">
            <Array as="points">
              <mxPoint x="180" y="430" />
              <mxPoint x="180" y="360" />
            </Array>
          </mxGeometry>
        </mxCell>
        <mxCell id="VHikrp3PAMkJuFz13JDx-16" value="" style="edgeStyle=orthogonalEdgeStyle;rounded=0;orthogonalLoop=1;jettySize=auto;html=1;" edge="1" parent="VHikrp3PAMkJuFz13JDx-1" source="VHikrp3PAMkJuFz13JDx-17" target="VHikrp3PAMkJuFz13JDx-29">
          <mxGeometry relative="1" as="geometry">
            <Array as="points">
              <mxPoint x="180" y="430" />
              <mxPoint x="180" y="480" />
            </Array>
          </mxGeometry>
        </mxCell>
        <mxCell id="VHikrp3PAMkJuFz13JDx-17" value="Fuente distribucional&lt;div&gt;(XML)&lt;/div&gt;" style="whiteSpace=wrap;html=1;rounded=0;" vertex="1" parent="VHikrp3PAMkJuFz13JDx-1">
          <mxGeometry x="40" y="400" width="120" height="60" as="geometry" />
        </mxCell>
        <mxCell id="VHikrp3PAMkJuFz13JDx-18" value="" style="edgeStyle=orthogonalEdgeStyle;rounded=0;orthogonalLoop=1;jettySize=auto;html=1;" edge="1" parent="VHikrp3PAMkJuFz13JDx-1" source="VHikrp3PAMkJuFz13JDx-19" target="VHikrp3PAMkJuFz13JDx-22">
          <mxGeometry relative="1" as="geometry" />
        </mxCell>
        <mxCell id="VHikrp3PAMkJuFz13JDx-19" value="Remuestreo offline&lt;div&gt;(C)&lt;/div&gt;" style="whiteSpace=wrap;html=1;rounded=1;" vertex="1" parent="VHikrp3PAMkJuFz13JDx-1">
          <mxGeometry x="200" y="330" width="120" height="60" as="geometry" />
        </mxCell>
        <mxCell id="VHikrp3PAMkJuFz13JDx-20" value="" style="edgeStyle=orthogonalEdgeStyle;rounded=0;orthogonalLoop=1;jettySize=auto;html=1;" edge="1" parent="VHikrp3PAMkJuFz13JDx-1" source="VHikrp3PAMkJuFz13JDx-22" target="VHikrp3PAMkJuFz13JDx-24">
          <mxGeometry relative="1" as="geometry">
            <Array as="points">
              <mxPoint x="490" y="360" />
              <mxPoint x="490" y="320" />
            </Array>
          </mxGeometry>
        </mxCell>
        <mxCell id="VHikrp3PAMkJuFz13JDx-21" style="edgeStyle=orthogonalEdgeStyle;rounded=0;orthogonalLoop=1;jettySize=auto;html=1;entryX=0;entryY=0.5;entryDx=0;entryDy=0;" edge="1" parent="VHikrp3PAMkJuFz13JDx-1" source="VHikrp3PAMkJuFz13JDx-22" target="VHikrp3PAMkJuFz13JDx-27">
          <mxGeometry relative="1" as="geometry">
            <Array as="points">
              <mxPoint x="490" y="360" />
              <mxPoint x="490" y="400" />
              <mxPoint x="840" y="400" />
              <mxPoint x="840" y="360" />
              <mxPoint x="860" y="360" />
              <mxPoint x="860" y="430" />
            </Array>
          </mxGeometry>
        </mxCell>
        <mxCell id="VHikrp3PAMkJuFz13JDx-22" value="Archivo de partículas&lt;div&gt;(MCPL)&lt;/div&gt;" style="whiteSpace=wrap;html=1;rounded=0;" vertex="1" parent="VHikrp3PAMkJuFz13JDx-1">
          <mxGeometry x="340" y="330" width="130" height="60" as="geometry" />
        </mxCell>
        <mxCell id="VHikrp3PAMkJuFz13JDx-23" value="" style="edgeStyle=orthogonalEdgeStyle;rounded=0;orthogonalLoop=1;jettySize=auto;html=1;" edge="1" parent="VHikrp3PAMkJuFz13JDx-1" source="VHikrp3PAMkJuFz13JDx-24" target="VHikrp3PAMkJuFz13JDx-26">
          <mxGeometry relative="1" as="geometry" />
        </mxCell>
        <mxCell id="VHikrp3PAMkJuFz13JDx-24" value="Conversión MCPL a HDF5&lt;div&gt;(Python)&lt;/div&gt;" style="whiteSpace=wrap;html=1;rounded=1;" vertex="1" parent="VHikrp3PAMkJuFz13JDx-1">
          <mxGeometry x="510" y="290" width="165" height="60" as="geometry" />
        </mxCell>
        <mxCell id="VHikrp3PAMkJuFz13JDx-25" value="" style="edgeStyle=orthogonalEdgeStyle;rounded=0;orthogonalLoop=1;jettySize=auto;html=1;" edge="1" parent="VHikrp3PAMkJuFz13JDx-1" source="VHikrp3PAMkJuFz13JDx-26" target="VHikrp3PAMkJuFz13JDx-27">
          <mxGeometry relative="1" as="geometry">
            <Array as="points">
              <mxPoint x="840" y="320" />
              <mxPoint x="840" y="360" />
              <mxPoint x="860" y="360" />
              <mxPoint x="860" y="430" />
            </Array>
          </mxGeometry>
        </mxCell>
        <mxCell id="VHikrp3PAMkJuFz13JDx-26" value="Archivo de partículas&lt;div&gt;(HDF5)&lt;/div&gt;" style="whiteSpace=wrap;html=1;rounded=0;" vertex="1" parent="VHikrp3PAMkJuFz13JDx-1">
          <mxGeometry x="700" y="290" width="120" height="60" as="geometry" />
        </mxCell>
        <mxCell id="VHikrp3PAMkJuFz13JDx-27" value="Simulación desacoplada en OpenMC&lt;br&gt;(Python + C++)" style="whiteSpace=wrap;html=1;rounded=1;" vertex="1" parent="VHikrp3PAMkJuFz13JDx-1">
          <mxGeometry x="880" y="400" width="217.5" height="60" as="geometry" />
        </mxCell>
        <mxCell id="VHikrp3PAMkJuFz13JDx-28" style="edgeStyle=orthogonalEdgeStyle;rounded=0;orthogonalLoop=1;jettySize=auto;html=1;entryX=0;entryY=0.5;entryDx=0;entryDy=0;" edge="1" parent="VHikrp3PAMkJuFz13JDx-1" source="VHikrp3PAMkJuFz13JDx-29" target="VHikrp3PAMkJuFz13JDx-27">
          <mxGeometry relative="1" as="geometry">
            <Array as="points">
              <mxPoint x="860" y="480" />
              <mxPoint x="860" y="430" />
            </Array>
          </mxGeometry>
        </mxCell>
        <mxCell id="VHikrp3PAMkJuFz13JDx-29" value="Remuestreo on-the-fly&lt;div&gt;(C)&lt;/div&gt;" style="whiteSpace=wrap;html=1;rounded=1;" vertex="1" parent="VHikrp3PAMkJuFz13JDx-1">
          <mxGeometry x="435" y="450" width="130" height="60" as="geometry" />
        </mxCell>
      </root>
    </mxGraphModel>
  </diagram>
</mxfile>
